<?xml version="1.0" encoding="utf-8"?>
<!-- Generator: Adobe Illustrator 10.0, SVG Export Plug-In . SVG Version: 3.0.0 Build 76)  -->
<!DOCTYPE svg PUBLIC "-//W3C//DTD SVG 1.0//EN"    "http://www.w3.org/TR/2001/REC-SVG-20010904/DTD/svg10.dtd" [
	<!ENTITY ns_flows "http://ns.adobe.com/Flows/1.0/">
	<!ENTITY ns_svg "http://www.w3.org/2000/svg">
	<!ENTITY ns_xlink "http://www.w3.org/1999/xlink">
]>
<svg  xmlns="&ns_svg;" xmlns:xlink="&ns_xlink;" xmlns:a="http://ns.adobe.com/AdobeSVGViewerExtensions/3.0/"
	 width="335.333" height="248.667" viewBox="0 0 335.333 248.667" overflow="visible" enable-background="new 0 0 335.333 248.667"
	 xml:space="preserve">
	<g id="Layer_1">
		<path fill="none" d="M335.333,248.667H0V0h335.333V248.667z"/>
		<path opacity="0.3" fill="#FFFF99" d="M281.916,82.473l-54.506,31.47l12.858-33.466l54.506-31.47L281.916,82.473z"/>
		<path opacity="0.3" fill="#FFFF99" d="M227.331,114.088l-102.533,68.125V138.64l115.005-58.09L227.331,114.088z"/>
		<path fill="none" stroke="#000000" stroke-width="0.25" d="M124.797,181.952l102.565-67.981l54.458-31.441l12.906-33.494"/>
		<path fill="none" stroke="#000000" stroke-width="0.25" d="M294.727,49.036l-54.458,31.441L124.797,138.64"/>
		<g>
			<path fill="none" stroke="#FF0000" stroke-width="0.6554" d="M233.815,97.224l-3.31,6.633l-2.461,4.967l-2.087,3.973
				l-1.623,2.721l-1.104,1.296l-0.578-0.185l-0.073-1.631l0.371-2.933l0.723-3.998l0.931-4.689l0.977-4.918l0.834-4.598l0.491-3.703
				l-0.02-2.281l-0.648-0.478l-1.313,1.477l-1.928,3.326l-2.41,4.823l-2.715,5.806l-2.822,6.205"/>
			<path fill="none" stroke="#FF0000" stroke-width="0.6554" d="M215.049,109.037l-2.745,6.032l-2.507,5.364l-2.157,4.298
				l-1.732,2.968l-1.264,1.461l-0.795-0.101l-0.351-1.63l0.035-3.012l0.339-4.155l0.514-4.91l0.539-5.178l0.401-4.859l0.082-3.911
				l-0.385-2.382l-0.953-0.425l-1.544,1.697l-2.083,3.706l-2.491,5.32l-2.739,6.362l-2.813,6.768"/>
			<path fill="none" stroke="#FF0000" stroke-width="0.6554" d="M192.401,122.452l-2.723,6.556l-2.507,5.822l-2.204,4.677
				l-1.851,3.262l-1.473,1.674l-1.107,0.032l-0.77-1.58l-0.484-3.046l-0.273-4.269l-0.169-5.096l-0.18-5.412l-0.32-5.098
				l-0.594-4.099l-0.978-2.448l-1.416-0.325l-1.868,1.998l-2.252,4.183l-2.522,5.922l-2.666,7.022l-2.679,7.422"/>
			<path fill="none" stroke="#FF0000" stroke-width="0.6554" d="M163.366,139.65l-2.583,7.157l-2.41,6.347l-2.198,5.114
				l-1.976,3.621l-1.755,1.955l-1.568,0.242l-1.419-1.439l-1.322-2.979l-1.278-4.281l-1.31-5.181l-1.405-5.554l-1.557-5.254
				l-1.76-4.206l-1.98-2.432l-2.18-0.115l-2.338,2.419l-2.423,3.794l-2.429,6.66l-2.382,6.802l-2.295,7.844"/>
		</g>
		<g>
			<path fill="none" stroke="#FF0000" stroke-width="0.6554" d="M288.347,65.74l-3.351,5.957l-3.152,5.453l-2.785,4.486
				l-2.276,3.165l-1.677,1.605l-1.05-0.031l-0.449-1.592l0.058-2.911l0.435-3.883l0.622-4.381l0.623-4.383l0.429-3.875l0.061-2.917
				l-0.45-1.591l-1.045-0.033l-1.678,1.605l-2.278,3.167l-2.784,4.49l-3.155,5.45l-3.35,5.957"/>
			<path fill="none" stroke="#FF0000" stroke-width="0.6554" d="M261.093,81.475l-3.35,5.956l-3.153,5.453l-2.785,4.486
				l-2.276,3.166l-1.677,1.605l-1.048-0.032l-0.45-1.591l0.059-2.912l0.432-3.881l0.623-4.382l0.622-4.382l0.432-3.877l0.06-2.917
				l-0.45-1.591l-1.046-0.033l-1.678,1.605l-2.278,3.167l-2.784,4.49l-3.155,5.45l-3.35,5.957"/>
		</g>
		<path opacity="0.23" fill="none" stroke="#000000" stroke-width="0.5" d="M254.425,132.923
			c-5.274,3.046-12.561,2.606-20.609-2.041c-16.097-9.293-29.146-31.896-29.146-50.482c0-9.293,3.262-15.824,8.537-18.869"/>
		<path opacity="0.49" fill="#FFCCFF" stroke="#000000" stroke-width="0.5" d="M153.943,176.993
			c0,18.587-13.049,26.121-29.146,16.827s-29.146-31.896-29.146-50.482s13.049-26.121,29.146-16.827
			S153.943,158.406,153.943,176.993z"/>
		<path opacity="0.5" fill="#FFE6FF" stroke="#000000" stroke-width="0.5" d="M104.19,124.473l109.018-62.94l-0.095,0.05
			c5.282-3.104,12.606-2.686,20.702,1.988c16.097,9.293,29.146,31.896,29.146,50.482c0,9.293-3.263,15.824-8.537,18.869h-0.001
			l-109.017,62.94c5.274-3.045,8.537-9.575,8.537-18.869c0-18.587-13.05-41.189-29.146-50.482
			c-8.096-4.674-15.42-5.092-20.702-1.988L104.19,124.473z"/>
		<path fill="#FFFFFF" stroke="#000000" stroke-width="0.5" stroke-dasharray="4 2" d="M43.934,206.853L308.879,53.885"/>
		<path fill="none" stroke="#000000" stroke-width="0.25" d="M124.797,181.952l-54.507,31.47v-43.573l54.507-31.209"/>
		<path opacity="0.3" fill="#FFFF99" d="M124.797,181.952l-54.507,31.47v-43.573l54.507-31.47V181.952z"/>
		<g>
			<path fill="none" stroke="#FF0000" stroke-width="0.6554" d="M124.797,160.166l-1.363,7.518l-1.36,6.863l-1.363,5.603
				l-1.363,3.884l-1.361,1.852l-1.364-0.278l-1.363-2.311l-1.363-4.028l-1.359-5.292l-1.364-5.943l-1.363-5.943l-1.361-5.284
				l-1.364-4.036l-1.364-2.31l-1.36-0.281l-1.363,1.853l-1.364,3.885l-1.361,5.609l-1.363,6.857l-1.364,7.518"/>
			<path fill="none" stroke="#FF0000" stroke-width="0.6554" d="M97.544,175.9l-1.363,7.518l-1.361,6.863l-1.363,5.603l-1.363,3.884
				l-1.361,1.852l-1.363-0.279l-1.364-2.31l-1.363-4.028l-1.36-5.292l-1.363-5.943l-1.364-5.943l-1.361-5.285l-1.363-4.036
				l-1.364-2.31l-1.361-0.28l-1.363,1.853l-1.364,3.884l-1.361,5.608l-1.363,6.857l-1.364,7.518"/>
		</g>
		<g>
			<g>
				<path d="M37.233,210.721l-6.896,7.566l-6.208-3.584L37.233,210.721z"/>
				<path d="M309.005,11.957l3.14,0.688v2.25L309.005,11.957z"/>
				<path d="M321.332,21.572l-3.287-1.962l0.61-1.785L321.332,21.572z"/>
				<path stroke="#FF0000" d="M28.995,215.478"/>
			</g>
			<path fill="none" stroke="#000000" d="M27.234,216.495L6.21,228.632"/>
		</g>
		<g>
			<g>
				<path d="M176.135,189.805l6.279-5.875v4.5L176.135,189.805z"/>
				<path stroke="#FF0000" d="M182.414,186.18"/>
			</g>
			<path fill="none" stroke="#000000" stroke-width="0.5" stroke-linecap="square" d="M182.414,186.18l39.537-22.826"/>
		</g>
		<g>
			<g>
				<path d="M285.155,126.865l-6.278,5.875v-4.5L285.155,126.865z"/>
				<path stroke="#FF0000" d="M278.877,130.49"/>
			</g>
			<path fill="none" stroke="#000000" stroke-width="0.5" stroke-linecap="square" d="M278.877,130.49l-40.339,23.287"/>
		</g>
		<g>
			<g>
				<path d="M180.808,71.079l-7.061,7.745l-6.355-3.668L180.808,71.079z"/>
				<path stroke="#FF0000" d="M170.57,76.99"/>
			</g>
			<path fill="none" stroke="#000000" stroke-width="2" stroke-linecap="square" d="M170.57,76.99l-44.809,25.867"/>
		</g>
		<path fill="none" stroke="#000000" stroke-width="0.25" stroke-linecap="square" d="M186.1,195.559l-30.02-17.332"/>
		<path fill="none" stroke="#000000" stroke-width="0.25" stroke-linecap="square" d="M295.115,132.615l-30.02-17.332"/>
		<g>
			<path d="M236.689,150.812l-3.099,10.588c-0.169,0.574-0.253,0.951-0.253,1.13c0,0.052,0.018,0.102,0.051,0.148
				s0.068,0.07,0.104,0.07c0.051,0,0.112-0.034,0.184-0.102c0.135-0.131,0.359-0.478,0.676-1.04l0.299,0.185
				c-0.346,0.576-0.693,1.025-1.045,1.348s-0.682,0.484-0.987,0.484c-0.163,0-0.306-0.071-0.427-0.211
				c-0.121-0.141-0.182-0.341-0.182-0.6c0-0.335,0.088-0.785,0.264-1.35l0.308-1.066c-0.935,1.306-1.786,2.21-2.554,2.711
				c-0.529,0.344-1.035,0.516-1.518,0.516c-0.49,0-0.917-0.199-1.282-0.595c-0.364-0.396-0.546-0.936-0.546-1.617
				c0-0.875,0.302-1.81,0.908-2.803c0.605-0.993,1.404-1.801,2.398-2.424c0.783-0.499,1.503-0.749,2.16-0.749
				c0.344,0,0.64,0.065,0.889,0.195c0.248,0.13,0.493,0.346,0.735,0.647l0.833-2.886c0.09-0.321,0.164-0.577,0.222-0.769
				c0.07-0.24,0.105-0.438,0.105-0.595c0-0.126-0.044-0.231-0.132-0.315c-0.125-0.101-0.286-0.152-0.482-0.152
				c-0.137,0-0.363,0.021-0.679,0.062v-0.313L236.689,150.812z M233.287,157.13c0-0.377-0.121-0.681-0.361-0.911
				c-0.24-0.229-0.547-0.345-0.916-0.345c-0.82,0-1.673,0.613-2.56,1.839c-0.888,1.226-1.331,2.399-1.331,3.519
				c0,0.442,0.113,0.78,0.34,1.012c0.227,0.233,0.498,0.349,0.814,0.349c0.715,0,1.563-0.663,2.543-1.989
				S233.287,158.12,233.287,157.13z"/>
		</g>
		<g>
			<path d="M299.344,13.921v1.488c0,0.951-0.115,1.981-0.344,3.09h-1.5c0.175-0.727,0.279-1.221,0.311-1.485
				c0.084-0.82,0.127-1.42,0.127-1.801V6.236c0-1.048,0.104-1.825,0.31-2.332s0.579-0.93,1.116-1.27
				c0.539-0.34,1.183-0.51,1.934-0.51c1.041,0,1.872,0.281,2.494,0.842s0.934,1.228,0.934,1.999c0,0.497-0.129,0.969-0.387,1.417
				s-0.655,0.835-1.193,1.162c1.595,0.749,2.393,1.914,2.393,3.494c0,0.703-0.164,1.358-0.492,1.967
				c-0.329,0.608-0.781,1.072-1.355,1.391s-1.167,0.479-1.777,0.479c-0.393,0-0.781-0.067-1.165-0.201
				S299.895,14.289,299.344,13.921z M299.344,13.228c0.569,0.398,1.066,0.685,1.488,0.86c0.318,0.129,0.635,0.193,0.952,0.193
				c0.593,0,1.091-0.244,1.493-0.733s0.604-1.263,0.604-2.323c0-0.667-0.098-1.251-0.294-1.751s-0.54-1.049-1.034-1.646
				c-0.4,0.136-0.746,0.204-1.035,0.204c-0.35,0-0.594-0.053-0.736-0.159c-0.143-0.106-0.213-0.221-0.213-0.345
				c0-0.112,0.055-0.212,0.165-0.301s0.287-0.133,0.531-0.133c0.284,0,0.714,0.077,1.288,0.23c0.406-0.81,0.609-1.576,0.609-2.298
				c0-0.733-0.18-1.301-0.541-1.704c-0.359-0.402-0.808-0.603-1.342-0.603c-0.674,0-1.197,0.287-1.569,0.859
				c-0.244,0.38-0.366,0.991-0.366,1.832V13.228z"/>
		</g>
		<g>
			<path d="M144.637,79.695c1.142,0.263,1.943,0.582,2.404,0.956c0.662,0.532,0.994,1.222,0.994,2.069
				c0,0.895-0.361,1.634-1.084,2.218c-0.887,0.708-2.177,1.061-3.869,1.061h-6.072v-0.313c0.563,0,0.944-0.051,1.145-0.155
				c0.2-0.104,0.341-0.238,0.422-0.403c0.081-0.166,0.121-0.573,0.121-1.223v-7.719c0-0.649-0.041-1.059-0.121-1.227
				c-0.081-0.168-0.223-0.303-0.426-0.403c-0.204-0.101-0.583-0.151-1.14-0.151v-0.313h5.736c1.371,0,2.341,0.122,2.912,0.365
				s1.021,0.607,1.351,1.09c0.329,0.484,0.494,0.999,0.494,1.543c0,0.575-0.211,1.086-0.634,1.535
				C146.446,79.076,145.702,79.432,144.637,79.695z M141.461,80.125l-0.012,3.827l-0.001,0.438c0,0.315,0.079,0.553,0.236,0.713
				c0.157,0.161,0.391,0.241,0.7,0.241c0.458,0,0.88-0.104,1.266-0.312s0.683-0.509,0.889-0.904s0.309-0.835,0.309-1.321
				c0-0.556-0.114-1.055-0.34-1.497s-0.566-0.751-1.019-0.928C143.036,80.205,142.36,80.119,141.461,80.125z M141.464,79.468
				c0.834,0,1.449-0.094,1.846-0.283s0.7-0.453,0.91-0.795s0.315-0.778,0.315-1.308s-0.104-0.964-0.311-1.303
				s-0.503-0.597-0.889-0.773s-1.004-0.262-1.856-0.256L141.464,79.468z"/>
		</g>
		<g>
			<path d="M36.719,186.417v2.703h0.133c0.424,0,0.732-0.132,0.923-0.396c0.19-0.264,0.313-0.653,0.365-1.167h0.172v3.453h-0.172
				c-0.04-0.376-0.123-0.684-0.25-0.923c-0.126-0.24-0.274-0.401-0.442-0.484s-0.411-0.124-0.73-0.124v1.875
				c0,0.367,0.016,0.591,0.046,0.673s0.088,0.149,0.173,0.201c0.085,0.053,0.222,0.079,0.41,0.079h0.396
				c0.619,0,1.115-0.144,1.488-0.433c0.373-0.289,0.641-0.726,0.804-1.312h0.183l-0.298,2.104h-5.733v-0.172h0.221
				c0.193,0,0.349-0.035,0.467-0.104c0.085-0.047,0.15-0.126,0.196-0.239c0.036-0.08,0.054-0.288,0.054-0.626v-4.344
				c0-0.305-0.008-0.492-0.024-0.561c-0.033-0.116-0.094-0.206-0.182-0.269c-0.125-0.093-0.295-0.139-0.511-0.139h-0.221v-0.172
				h5.547v1.938h-0.172c-0.095-0.474-0.228-0.814-0.399-1.021c-0.172-0.206-0.414-0.357-0.728-0.454
				c-0.184-0.059-0.526-0.087-1.029-0.087H36.719z"/>
		</g>
		<g>
			<path d="M110.79,141.021l-0.308-4.257c-0.063-0.868-0.094-1.439-0.094-1.715c0-0.79,0.112-1.517,0.337-2.182
				c0.225-0.664,0.624-1.377,1.196-2.138c-0.681,0-1.375,0.163-2.082,0.487c-0.707,0.325-1.225,0.699-1.554,1.123
				c-0.329,0.423-0.493,0.85-0.493,1.279c0,0.197,0.059,0.406,0.178,0.626c0.152,0.278,0.229,0.49,0.229,0.635
				c0,0.134-0.041,0.241-0.123,0.322s-0.186,0.122-0.314,0.122c-0.187,0-0.35-0.096-0.489-0.288
				c-0.175-0.255-0.262-0.572-0.262-0.949c0-0.708,0.269-1.391,0.807-2.047s1.275-1.141,2.211-1.455
				c0.602-0.203,1.479-0.342,2.632-0.418c0.31-0.023,0.625-0.053,0.947-0.088c-0.792,1.161-1.309,2.13-1.549,2.908
				c-0.241,0.777-0.361,1.832-0.361,3.163c0,1.015,0.053,1.941,0.158,2.78l1.68-1.8l1.435-1.475
				c1.466-1.498,2.454-2.679,2.962-3.543c0.384-0.652,0.577-1.245,0.577-1.78c0-0.293-0.069-0.617-0.208-0.969
				c-0.091-0.223-0.136-0.394-0.136-0.511c0-0.158,0.06-0.296,0.181-0.414c0.121-0.117,0.264-0.176,0.429-0.176
				c0.224,0,0.413,0.115,0.566,0.344s0.23,0.587,0.23,1.075c0,0.476-0.1,0.979-0.3,1.511c-0.2,0.532-0.62,1.208-1.261,2.031
				s-1.63,1.912-2.97,3.268C113.636,137.908,112.219,139.419,110.79,141.021z"/>
		</g>
		<g>
			<path fill="none" stroke="#000000" stroke-width="0.5" d="M66.226,245.462l-44.583-25.74v-51.479l44.583,25.741V245.462z"/>
			<path fill="none" stroke="#000000" stroke-width="0.5" d="M43.934,181.112v51.479"/>
			<path fill="none" stroke="#000000" stroke-width="0.5" d="M66.226,219.723l-44.583-25.741"/>
		</g>
		<g>
			<path fill="none" stroke="#000000" stroke-width="0.5" d="M331.312,92.129l-44.583-25.74V14.909l44.583,25.741V92.129z"/>
			<path fill="none" stroke="#000000" stroke-width="0.5" d="M309.02,27.779v51.479"/>
			<path fill="none" stroke="#000000" stroke-width="0.5" d="M331.312,66.39l-44.583-25.741"/>
		</g>
		<g>
			<g>
				<path fill="#FF0000" d="M43.934,183.453l1.948,8.375l-3.897-2.25L43.934,183.453z"/>
				<path stroke="#FF0000" d="M43.934,190.703"/>
			</g>
			<g>
				<path fill="#FF0000" d="M43.934,230.253l-1.948-8.375l3.897,2.25L43.934,230.253z"/>
				<path stroke="#FF0000" d="M43.934,223.003"/>
			</g>
			<path fill="none" stroke="#FF0000" stroke-linecap="square" d="M43.934,190.703v32.3"/>
		</g>
		<g>
			<path fill="none" stroke="#000000" stroke-width="0.4" stroke-linecap="square" stroke-dasharray="4 2" d="M322.104,19.564
				L309.02,53.52"/>
		</g>
		<path fill="none" stroke="#000000" stroke-width="0.4" stroke-linecap="square" stroke-dasharray="4 2" d="M309.02,27.779V9.917"
			/>
		<path fill="none" stroke="#000000" stroke-width="0.5" d="M311.727,13.452c2.123,1.437,5.079,3.942,7.08,5.715"/>
		<g>
			<g>
				<path fill="#FF0000" d="M315.949,35.533l-0.315,7.399l-3.662-3.653L315.949,35.533z"/>
				<path stroke="#FF0000" d="M310.292,44.616"/>
			</g>
			<g>
				<path fill="#FF0000" d="M302.089,71.508l0.317-7.399l3.66,3.653L302.089,71.508z"/>
			</g>
			<path fill="none" stroke="#FF0000" stroke-linecap="square" d="M313.803,41.105L309.02,53.52l-4.783,12.415"/>
		</g>
	</g>
</svg>
